<?xml version="1.0" standalone="no"?>
<!DOCTYPE svg PUBLIC "-//W3C//DTD SVG 20010904//EN"
 "http://www.w3.org/TR/2001/REC-SVG-20010904/DTD/svg10.dtd">
<svg version="1.0" xmlns="http://www.w3.org/2000/svg"
 width="512.000000pt" height="512.000000pt" viewBox="0 0 512.000000 512.000000"
 preserveAspectRatio="xMidYMid meet">
<metadata>
Created by potrace 1.15, written by Peter Selinger 2001-2017
</metadata>
<g transform="translate(0.000000,512.000000) scale(0.100000,-0.100000)"
fill="#000000" stroke="none">
<path d="M203 4958 c-174 -172 -196 -198 -191 -231 3 -19 32 5 192 163 103
102 192 193 197 203 8 14 5 17 -17 17 -21 0 -60 -33 -181 -152z"/>
<path d="M303 4858 c-140 -139 -264 -265 -275 -281 -10 -15 -18 -37 -16 -50 3
-18 49 23 292 263 158 157 292 293 297 303 8 14 5 17 -17 17 -22 0 -75 -47
-281 -252z"/>
<path d="M402 4758 c-194 -194 -362 -365 -373 -381 -11 -15 -19 -37 -17 -50 4
-18 67 40 392 363 213 212 392 393 397 403 8 14 5 17 -18 17 -22 0 -89 -62
-381 -352z"/>
<path d="M502 4658 c-249 -249 -462 -465 -473 -481 -11 -15 -19 -37 -17 -50 4
-18 84 57 492 463 268 267 492 493 497 503 8 14 5 17 -18 17 -22 0 -104 -76
-481 -452z"/>
<path d="M602 4558 c-304 -304 -562 -565 -573 -581 -11 -15 -19 -37 -17 -50 4
-18 101 75 592 563 323 322 592 593 597 603 8 14 5 17 -18 17 -23 0 -118 -91
-581 -552z"/>
<path d="M702 4458 c-359 -359 -662 -665 -673 -681 -11 -15 -19 -37 -17 -50 4
-18 118 92 692 663 378 377 692 693 697 703 8 14 5 17 -18 17 -23 0 -133 -106
-681 -652z"/>
<path d="M1135 4690 c-403 -403 -422 -420 -458 -420 -36 0 -37 -1 -37 -37 0
-36 -15 -52 -315 -353 -257 -258 -315 -321 -315 -343 0 -15 3 -27 7 -27 4 0
146 138 315 307 l308 308 0 -65 0 -64 -315 -316 c-257 -258 -315 -321 -315
-343 0 -15 3 -27 7 -27 4 0 146 138 315 307 l308 308 0 -65 0 -64 -315 -316
c-257 -258 -315 -321 -315 -343 0 -15 3 -27 7 -27 4 0 146 138 315 307 l308
308 0 -65 0 -64 -315 -316 c-257 -258 -315 -321 -315 -343 0 -15 3 -27 7 -27
4 0 146 138 315 307 l308 308 0 -65 0 -64 -315 -316 c-257 -258 -315 -321
-315 -343 0 -15 3 -27 7 -27 4 0 146 138 315 307 l308 308 0 -65 0 -64 -315
-316 c-257 -258 -315 -321 -315 -343 0 -15 3 -27 7 -27 4 0 146 138 315 307
l308 308 0 -65 0 -64 -315 -316 c-257 -258 -315 -321 -315 -343 0 -15 3 -27 7
-27 4 0 146 138 315 307 l308 308 0 -65 0 -64 -315 -316 c-257 -258 -315 -321
-315 -343 0 -15 3 -27 7 -27 4 0 146 138 315 307 l308 308 0 -65 0 -64 -315
-316 c-259 -260 -315 -321 -315 -344 0 -22 3 -25 18 -17 9 5 159 152 332 325
l315 316 65 0 64 0 -397 -398 c-329 -330 -397 -403 -397 -425 0 -23 3 -26 18
-18 9 5 204 197 432 425 l415 416 65 0 65 0 -498 -498 c-411 -412 -497 -503
-497 -525 0 -15 3 -27 7 -27 4 0 529 521 1165 1157 l1158 1158 0 -65 0 -65
-1165 -1165 c-978 -978 -1165 -1170 -1165 -1193 0 -15 3 -27 7 -27 4 0 529
521 1165 1157 l1158 1158 0 -65 0 -65 -1165 -1165 c-978 -978 -1165 -1170
-1165 -1193 0 -15 3 -27 7 -27 4 0 529 521 1165 1157 l1158 1158 0 -65 0 -65
-1165 -1165 c-978 -978 -1165 -1170 -1165 -1193 0 -15 3 -27 7 -27 4 0 529
521 1165 1157 l1158 1158 0 -65 0 -65 -1165 -1165 c-978 -978 -1165 -1170
-1165 -1193 0 -15 3 -27 7 -27 4 0 529 521 1165 1157 l1158 1158 0 -65 0 -65
-1165 -1165 c-978 -978 -1165 -1170 -1165 -1193 0 -15 3 -27 7 -27 4 0 529
521 1165 1157 l1158 1158 0 -65 0 -65 -1165 -1165 c-978 -978 -1165 -1170
-1165 -1193 0 -15 3 -27 7 -27 4 0 529 521 1165 1157 l1158 1158 0 -65 0 -65
-1165 -1165 c-978 -978 -1165 -1170 -1165 -1193 0 -15 3 -27 7 -27 4 0 529
521 1165 1157 l1158 1158 0 -65 0 -65 -1131 -1130 c-621 -622 -1135 -1138
-1140 -1148 -8 -14 -5 -17 18 -17 23 0 200 172 1140 1112 l1113 1113 0 -65 0
-65 -1031 -1030 c-566 -567 -1035 -1038 -1040 -1047 -8 -15 -5 -18 18 -18 23
0 185 158 1040 1012 l1013 1013 0 -65 0 -65 -931 -930 c-511 -512 -935 -938
-940 -947 -8 -15 -5 -18 18 -18 23 0 171 143 940 912 l913 913 0 -65 0 -65
-831 -830 c-456 -457 -835 -838 -840 -847 -8 -15 -5 -18 18 -18 23 0 156 129
840 812 l813 813 0 -65 0 -65 -731 -730 c-401 -402 -735 -738 -740 -747 -8
-15 -5 -18 18 -18 23 0 142 114 740 712 l713 713 0 -65 0 -65 -631 -630 c-346
-347 -635 -638 -640 -647 -8 -15 -5 -18 18 -18 23 0 127 100 640 612 l613 613
0 -65 0 -65 -531 -530 c-291 -292 -535 -538 -540 -547 -8 -15 -5 -18 18 -18
23 0 112 85 540 512 l513 513 0 -65 0 -65 -431 -430 c-236 -237 -435 -438
-440 -447 -8 -15 -5 -18 18 -18 22 0 99 72 453 425 l426 425 64 0 65 0 -418
-418 c-229 -230 -417 -421 -417 -425 0 -4 12 -7 27 -7 22 0 102 75 453 425
l426 425 64 0 65 0 -418 -418 c-229 -230 -417 -421 -417 -425 0 -4 12 -7 27
-7 22 0 102 75 453 425 l426 425 64 0 65 0 -418 -418 c-229 -230 -417 -421
-417 -425 0 -4 12 -7 27 -7 22 0 102 75 453 425 l426 425 64 0 65 0 -418 -418
c-229 -230 -417 -421 -417 -425 0 -4 12 -7 27 -7 22 0 102 75 453 425 l426
425 64 0 65 0 -418 -418 c-229 -230 -417 -421 -417 -425 0 -4 12 -7 27 -7 22
0 102 75 453 425 l426 425 64 0 65 0 -418 -418 c-229 -230 -417 -421 -417
-425 0 -4 12 -7 27 -7 22 0 102 75 453 425 l426 425 64 0 65 0 -418 -418
c-229 -230 -417 -421 -417 -425 0 -4 12 -7 27 -7 22 0 102 75 453 425 l426
425 64 0 65 0 -418 -418 c-229 -230 -417 -421 -417 -425 0 -4 12 -7 27 -7 22
0 102 75 453 425 l426 425 64 0 65 0 -418 -418 c-229 -230 -417 -421 -417
-425 0 -4 12 -7 27 -7 22 0 102 75 453 425 l426 425 64 0 65 0 -418 -418
c-229 -230 -417 -421 -417 -425 0 -4 12 -7 27 -7 22 0 102 75 453 425 l426
425 57 0 57 0 0 57 0 57 320 321 c261 262 320 326 320 348 0 15 -3 27 -7 27
-4 0 -148 -141 -320 -312 l-313 -313 0 65 0 64 320 321 c261 262 320 326 320
348 0 15 -3 27 -7 27 -4 0 -148 -141 -320 -312 l-313 -313 0 65 0 64 320 321
c261 262 320 326 320 348 0 15 -3 27 -7 27 -4 0 -148 -141 -320 -312 l-313
-313 0 65 0 64 320 321 c261 262 320 326 320 348 0 15 -3 27 -7 27 -4 0 -148
-141 -320 -312 l-313 -313 0 65 0 64 320 321 c261 262 320 326 320 348 0 15
-3 27 -7 27 -4 0 -148 -141 -320 -312 l-313 -313 0 65 0 64 320 321 c261 262
320 326 320 348 0 15 -3 27 -7 27 -4 0 -148 -141 -320 -312 l-313 -313 0 65 0
64 320 321 c261 262 320 326 320 348 0 15 -3 27 -7 27 -4 0 -148 -141 -320
-312 l-313 -313 0 65 0 64 320 321 c261 262 320 326 320 348 0 15 -3 27 -7 27
-4 0 -148 -141 -320 -312 l-313 -313 0 65 0 64 320 321 c263 264 320 326 320
349 0 22 -3 25 -17 17 -10 -5 -171 -163 -358 -350 l-340 -341 -65 0 -64 0 422
423 c350 351 422 428 422 450 0 23 -3 26 -17 18 -10 -5 -216 -208 -458 -450
l-440 -441 -65 0 -65 0 523 523 c432 433 522 527 522 550 0 15 -3 27 -7 27 -4
0 -531 -523 -1170 -1162 l-1163 -1163 0 65 0 65 1170 1170 c982 982 1170 1175
1170 1198 0 15 -3 27 -7 27 -4 0 -531 -523 -1170 -1162 l-1163 -1163 0 65 0
65 1170 1170 c982 982 1170 1175 1170 1198 0 15 -3 27 -7 27 -4 0 -531 -523
-1170 -1162 l-1163 -1163 0 65 0 65 1170 1170 c982 982 1170 1175 1170 1198 0
15 -3 27 -7 27 -4 0 -531 -523 -1170 -1162 l-1163 -1163 0 65 0 65 1170 1170
c982 982 1170 1175 1170 1198 0 15 -3 27 -7 27 -4 0 -531 -523 -1170 -1162
l-1163 -1163 0 65 0 65 1170 1170 c982 982 1170 1175 1170 1198 0 15 -3 27 -7
27 -4 0 -531 -523 -1170 -1162 l-1163 -1163 0 65 0 65 1170 1170 c982 982
1170 1175 1170 1198 0 15 -3 27 -7 27 -4 0 -531 -523 -1170 -1162 l-1163
-1163 0 65 0 65 1170 1170 c982 982 1170 1175 1170 1198 0 15 -3 27 -7 27 -4
0 -531 -523 -1170 -1162 l-1163 -1163 0 65 0 65 1106 1105 c608 608 1110 1113
1115 1123 8 14 5 17 -18 17 -23 0 -196 -169 -1115 -1087 l-1088 -1088 0 65 0
65 1006 1005 c553 553 1010 1013 1015 1023 8 14 5 17 -18 17 -23 0 -182 -154
-1015 -987 l-988 -988 0 65 0 65 906 905 c498 498 910 913 915 923 8 14 5 17
-18 17 -23 0 -167 -140 -915 -887 l-888 -888 0 65 0 65 806 805 c443 443 810
813 815 823 8 14 5 17 -18 17 -23 0 -152 -125 -815 -787 l-788 -788 0 65 0 65
706 705 c388 388 710 713 715 723 8 14 5 17 -18 17 -23 0 -138 -110 -715 -687
l-688 -688 0 65 0 65 606 605 c333 333 610 613 615 623 8 14 5 17 -18 17 -23
0 -123 -96 -615 -587 l-588 -588 0 65 0 65 506 505 c278 278 510 513 515 523
8 14 5 17 -18 17 -23 0 -109 -81 -515 -487 l-488 -488 0 65 0 65 406 405 c223
223 410 413 415 423 8 14 5 17 -18 17 -22 0 -99 -72 -448 -420 l-421 -420 -64
0 -65 0 413 413 c226 227 412 416 412 420 0 4 -12 7 -27 7 -22 0 -101 -74
-448 -420 l-421 -420 -64 0 -65 0 413 413 c226 227 412 416 412 420 0 4 -12 7
-27 7 -22 0 -101 -74 -448 -420 l-421 -420 -64 0 -65 0 413 413 c226 227 412
416 412 420 0 4 -12 7 -27 7 -22 0 -101 -74 -448 -420 l-421 -420 -64 0 -65 0
413 413 c226 227 412 416 412 420 0 4 -12 7 -27 7 -22 0 -101 -74 -448 -420
l-421 -420 -64 0 -65 0 413 413 c226 227 412 416 412 420 0 4 -12 7 -27 7 -22
0 -101 -74 -448 -420 l-421 -420 -64 0 -65 0 413 413 c226 227 412 416 412
420 0 4 -12 7 -27 7 -22 0 -101 -74 -448 -420 l-421 -420 -64 0 -65 0 413 413
c226 227 412 416 412 420 0 4 -12 7 -27 7 -22 0 -101 -74 -448 -420 l-421
-420 -64 0 -65 0 413 413 c226 227 412 416 412 420 0 4 -12 7 -27 7 -22 0
-101 -74 -448 -420 l-421 -420 -64 0 -65 0 413 413 c226 227 412 416 412 420
0 4 -12 7 -27 7 -22 0 -101 -74 -448 -420 l-421 -420 -64 0 -65 0 413 413
c226 227 412 416 412 420 0 4 -12 7 -27 7 -22 0 -101 -74 -448 -420z m45 -955
l-105 -106 -3 62 c-3 61 -2 63 40 106 41 42 44 43 107 43 l66 0 -105 -105z
m100 -100 l-205 -205 -3 62 -3 62 143 143 143 143 65 0 65 0 -205 -205z m100
-100 l-305 -305 -3 62 -3 62 243 243 243 243 65 0 65 0 -305 -305z m100 -100
l-405 -405 -3 62 -3 62 343 343 343 343 65 0 65 0 -405 -405z m100 -100 l-505
-505 -3 62 -3 62 443 443 443 443 65 0 65 0 -505 -505z m100 -100 l-605 -605
-3 62 -3 62 543 543 543 543 65 0 65 0 -605 -605z m1808 -1392 l-563 -563 -65
0 -65 0 625 625 625 625 3 -62 3 -62 -563 -563z m100 -100 l-463 -463 -65 0
-65 0 525 525 525 525 3 -62 3 -62 -463 -463z m100 -100 l-363 -363 -65 0 -65
0 425 425 425 425 3 -62 3 -62 -363 -363z m100 -100 l-263 -263 -65 0 -65 0
325 325 325 325 3 -62 3 -62 -263 -263z m100 -100 l-163 -163 -65 0 -65 0 225
225 225 225 3 -62 3 -62 -163 -163z m100 -100 l-62 -63 -66 0 -65 0 125 125
125 125 3 -61 3 -62 -63 -64z"/>
<path d="M4396 750 c-394 -393 -722 -723 -727 -732 -8 -15 -5 -18 18 -18 23 0
137 110 711 683 376 375 692 694 703 710 11 15 19 37 17 50 -4 18 -124 -97
-722 -693z"/>
<path d="M4496 650 c-339 -338 -622 -623 -627 -632 -8 -15 -5 -18 18 -18 23 0
123 95 611 583 321 320 592 594 603 610 11 15 19 37 17 50 -4 18 -106 -80
-622 -593z"/>
<path d="M4596 550 c-284 -283 -522 -523 -527 -533 -8 -14 -5 -17 18 -17 23 0
108 81 511 483 266 265 492 494 503 510 11 15 19 37 17 50 -4 18 -89 -62 -522
-493z"/>
<path d="M4696 450 c-229 -228 -422 -423 -427 -432 -8 -15 -5 -18 18 -18 22 0
93 66 411 383 211 210 392 394 403 410 11 15 19 37 17 50 -4 18 -72 -45 -422
-393z"/>
<path d="M4796 350 c-174 -173 -322 -323 -327 -332 -8 -15 -5 -18 17 -18 23 0
80 52 312 282 156 156 293 295 303 311 11 15 19 37 17 50 -4 18 -54 -28 -322
-293z"/>
<path d="M4896 250 c-119 -118 -222 -223 -227 -232 -8 -15 -5 -18 17 -18 21 0
65 37 211 183 205 202 226 227 221 260 -3 19 -37 -11 -222 -193z"/>
<path d="M4996 150 c-136 -133 -149 -150 -111 -150 18 0 49 23 111 82 102 98
127 130 122 161 -3 19 -19 7 -122 -93z"/>
</g>
</svg>
