<?xml version="1.0" standalone="no"?>
<!DOCTYPE svg PUBLIC "-//W3C//DTD SVG 20010904//EN"
 "http://www.w3.org/TR/2001/REC-SVG-20010904/DTD/svg10.dtd">
<svg version="1.0" xmlns="http://www.w3.org/2000/svg"
 width="512.000000pt" height="512.000000pt" viewBox="0 0 512.000000 512.000000"
 preserveAspectRatio="xMidYMid meet">
<metadata>
Created by potrace 1.15, written by Peter Selinger 2001-2017
</metadata>
<g transform="translate(0.000000,512.000000) scale(0.100000,-0.100000)"
fill="#000000" stroke="none">
<path d="M203 4958 c-174 -172 -196 -198 -191 -231 3 -19 32 5 192 163 103
102 192 193 197 203 8 14 5 17 -17 17 -21 0 -60 -33 -181 -152z"/>
<path d="M303 4858 c-140 -139 -264 -265 -275 -281 -10 -15 -18 -37 -16 -50 3
-18 49 23 292 263 158 157 292 293 297 303 8 14 5 17 -17 17 -22 0 -75 -47
-281 -252z"/>
<path d="M402 4758 c-194 -194 -362 -365 -373 -381 -11 -15 -19 -37 -17 -50 4
-18 67 40 392 363 213 212 392 393 397 403 8 14 5 17 -18 17 -22 0 -89 -62
-381 -352z"/>
<path d="M502 4658 c-249 -249 -462 -465 -473 -481 -11 -15 -19 -37 -17 -50 4
-18 84 57 492 463 268 267 492 493 497 503 8 14 5 17 -18 17 -22 0 -104 -76
-481 -452z"/>
<path d="M602 4558 c-304 -304 -562 -565 -573 -581 -11 -15 -19 -37 -17 -50 4
-18 101 75 592 563 323 322 592 593 597 603 8 14 5 17 -18 17 -23 0 -118 -91
-581 -552z"/>
<path d="M702 4458 c-359 -359 -662 -665 -673 -681 -11 -15 -19 -37 -17 -50 4
-18 118 92 692 663 378 377 692 693 697 703 8 14 5 17 -18 17 -23 0 -133 -106
-681 -652z"/>
<path d="M802 4358 c-414 -414 -762 -765 -773 -781 -11 -15 -19 -37 -17 -50 4
-18 136 109 792 763 433 432 792 793 797 803 8 14 5 17 -18 17 -23 0 -148
-120 -781 -752z"/>
<path d="M902 4258 c-469 -469 -862 -865 -873 -881 -11 -15 -19 -37 -17 -50 4
-18 153 126 892 863 488 487 892 893 897 903 8 14 5 17 -18 17 -23 0 -162
-135 -881 -852z"/>
<path d="M1002 4158 c-524 -524 -962 -965 -973 -981 -11 -15 -19 -37 -17 -50
4 -18 170 144 992 963 543 542 992 993 997 1003 8 14 5 17 -18 17 -23 0 -177
-149 -981 -952z"/>
<path d="M1102 4058 c-579 -579 -1062 -1065 -1073 -1081 -11 -15 -19 -37 -17
-50 4 -18 188 161 1092 1063 598 597 1092 1093 1097 1103 8 14 5 17 -18 17
-23 0 -191 -164 -1081 -1052z"/>
<path d="M2036 4790 c-969 -965 -1998 -1998 -2012 -2018 -8 -12 -14 -32 -12
-45 4 -18 136 110 782 753 748 745 776 772 725 690 -28 -47 -74 -121 -102
-165 -42 -68 -149 -180 -728 -760 -565 -567 -679 -685 -679 -708 0 -15 3 -27
7 -27 4 0 281 273 616 608 l608 607 -102 -165 -102 -165 -513 -515 c-425 -427
-514 -521 -514 -543 0 -15 3 -27 7 -27 4 0 205 197 447 438 241 240 435 430
430 422 -4 -8 -50 -82 -102 -165 l-94 -150 -344 -346 c-281 -282 -344 -350
-344 -372 0 -15 3 -27 7 -27 4 0 130 123 281 273 l274 272 -52 -85 c-29 -47
-57 -91 -63 -98 -8 -11 -7 -16 7 -24 16 -9 -13 -42 -218 -247 -191 -193 -236
-243 -236 -265 0 -22 3 -25 18 -17 9 5 125 118 256 250 263 264 238 247 306
202 12 -8 -43 -69 -283 -309 -241 -242 -297 -303 -297 -325 0 -15 3 -27 7 -27
4 0 147 140 319 311 l311 311 41 -23 41 -24 -359 -361 c-295 -295 -360 -365
-360 -387 0 -15 3 -27 7 -27 4 0 175 167 380 372 362 362 373 371 398 360 14
-7 27 -12 29 -12 2 0 33 48 69 108 63 101 91 131 516 556 l449 449 21 -34 c12
-19 21 -38 21 -44 0 -5 -425 -435 -945 -955 -791 -792 -945 -950 -945 -973 0
-15 3 -27 7 -27 4 0 436 428 960 952 524 524 954 950 956 948 3 -3 14 -21 26
-40 l21 -35 -985 -985 c-831 -832 -985 -990 -985 -1013 0 -23 3 -26 18 -18 9
5 458 451 997 990 l979 980 24 -41 24 -40 -1021 -1022 c-856 -856 -1021 -1026
-1021 -1049 0 -15 3 -27 7 -27 4 0 470 462 1034 1026 l1026 1026 21 -37 c12
-20 22 -39 22 -43 0 -4 -475 -482 -1055 -1062 -885 -885 -1055 -1060 -1055
-1083 0 -15 3 -27 7 -27 4 0 486 478 1071 1062 586 585 1066 1059 1068 1053 2
-5 13 -23 23 -40 l19 -30 -1094 -1095 c-924 -925 -1094 -1100 -1094 -1123 0
-23 3 -26 18 -18 9 5 505 498 1102 1095 597 597 1088 1086 1092 1086 4 0 16
-17 27 -37 l20 -38 -1130 -1130 c-954 -955 -1129 -1135 -1129 -1158 0 -23 3
-26 18 -18 9 5 523 516 1142 1135 l1124 1125 24 -41 25 -40 -1167 -1167 c-979
-979 -1166 -1171 -1166 -1194 0 -15 3 -27 7 -27 4 0 535 527 1179 1171 l1171
1171 21 -37 c12 -20 22 -39 22 -43 0 -4 -525 -531 -1166 -1172 -641 -641
-1170 -1173 -1175 -1182 -8 -15 -5 -18 18 -18 23 0 207 179 1190 1162 639 639
1164 1160 1166 1158 2 -3 13 -21 24 -41 l21 -36 -1105 -1104 c-607 -607 -1109
-1112 -1114 -1121 -8 -15 -5 -18 18 -18 23 0 197 170 1123 1095 602 602 1098
1095 1102 1095 4 0 16 -17 27 -38 l20 -38 -1040 -1040 c-572 -571 -1045 -1047
-1050 -1056 -8 -15 -5 -18 18 -18 23 0 189 161 1063 1035 l1036 1036 23 -42
24 -41 -987 -987 c-542 -542 -986 -990 -986 -994 0 -4 12 -7 27 -7 23 0 185
158 999 971 l971 971 22 -35 c11 -19 21 -38 21 -43 0 -5 -410 -419 -911 -919
-500 -501 -915 -918 -920 -928 -8 -14 -5 -17 18 -17 23 0 170 142 935 907 499
499 909 905 911 903 2 -3 13 -21 25 -40 l21 -36 -850 -849 c-468 -468 -855
-858 -860 -867 -8 -15 -5 -18 18 -18 23 0 161 133 873 845 l845 845 23 -42 23
-42 -796 -796 c-437 -437 -795 -799 -795 -803 0 -4 12 -7 27 -7 23 0 157 129
809 781 l782 782 22 -43 22 -43 -731 -731 c-402 -402 -731 -735 -731 -739 0
-4 12 -7 27 -7 23 0 147 119 744 717 l717 716 21 -34 c12 -19 21 -39 21 -44 0
-6 -295 -305 -656 -665 -360 -360 -660 -663 -665 -672 -8 -15 -5 -18 18 -18
23 0 133 105 680 653 525 524 656 649 664 637 5 -8 16 -27 24 -41 14 -25 10
-29 -581 -620 -328 -327 -600 -602 -605 -611 -8 -15 -5 -18 18 -18 23 0 124
96 618 590 l590 589 24 -41 23 -41 -541 -541 c-298 -298 -541 -545 -541 -549
0 -4 12 -7 27 -7 23 0 118 90 554 526 l526 526 22 -37 c11 -20 21 -39 21 -43
0 -4 -210 -216 -466 -472 -256 -256 -470 -473 -475 -482 -8 -15 -5 -18 18 -18
22 0 105 78 490 462 254 254 464 460 466 457 2 -2 13 -20 24 -40 l21 -36 -405
-404 c-222 -222 -409 -412 -414 -421 -8 -15 -5 -18 18 -18 22 0 95 68 423 395
217 217 399 395 403 395 3 0 15 -17 26 -38 l20 -38 -340 -340 c-187 -186 -345
-347 -350 -356 -8 -15 -5 -18 18 -18 22 0 87 60 365 337 186 186 338 332 338
325 0 -28 27 -8 55 41 21 37 268 292 852 877 686 689 823 830 823 853 0 15 -3
27 -7 27 -4 0 -342 -334 -752 -742 -409 -409 -740 -736 -735 -728 4 8 50 83
102 165 l94 150 649 650 c540 541 649 655 649 678 0 15 -3 27 -7 27 -4 0 -268
-260 -586 -578 -639 -636 -595 -603 -426 -329 43 69 125 156 535 567 400 401
484 491 484 513 0 15 -3 27 -7 27 -4 0 -194 -186 -421 -412 l-414 -413 103
165 102 165 319 321 c259 261 318 325 318 347 0 15 -3 27 -7 27 -4 0 -117
-109 -251 -242 -135 -134 -241 -236 -237 -228 5 8 17 28 29 44 12 18 16 31 9
33 -5 2 -19 10 -29 18 -18 13 -2 31 234 268 205 206 252 259 252 281 0 22 -3
25 -17 17 -10 -5 -133 -125 -273 -265 -140 -141 -258 -256 -263 -256 -4 0 -23
10 -42 23 l-34 22 314 316 c257 257 315 320 315 342 0 15 -3 27 -7 27 -4 0
-156 -148 -338 -329 l-330 -329 -39 25 -39 25 377 377 c311 312 376 382 376
404 0 23 -3 26 -17 18 -10 -5 -189 -181 -398 -390 -276 -277 -384 -379 -397
-375 -12 3 -24 -8 -44 -43 -17 -31 -205 -227 -518 -540 -270 -271 -494 -493
-498 -493 -4 0 -16 17 -27 38 l-20 37 960 960 c803 804 959 965 959 988 0 15
-3 27 -7 27 -4 0 -442 -434 -973 -965 l-966 -966 -23 42 -24 41 997 997 c834
835 996 1001 996 1024 0 15 -3 27 -7 27 -4 0 -458 -450 -1009 -1001 l-1001
-1001 -22 35 c-11 19 -21 38 -21 43 0 5 464 472 1030 1039 863 864 1030 1035
1030 1058 0 15 -3 27 -7 27 -4 0 -475 -467 -1045 -1037 -570 -570 -1039 -1035
-1041 -1033 -2 3 -13 21 -25 40 l-21 35 1069 1070 c904 904 1070 1075 1070
1098 0 23 -3 26 -17 18 -10 -5 -497 -489 -1083 -1075 l-1064 -1065 -24 41 -24
40 1106 1107 c928 928 1106 1111 1106 1134 0 15 -3 27 -7 27 -4 0 -508 -500
-1119 -1111 l-1111 -1111 -21 37 c-12 20 -22 39 -22 43 0 4 513 520 1140 1147
957 957 1140 1145 1140 1168 0 15 -3 27 -7 27 -4 0 -525 -516 -1156 -1147
-632 -632 -1151 -1143 -1153 -1138 -2 6 -13 24 -23 40 l-19 30 1179 1180 c997
998 1179 1185 1179 1208 0 23 -3 26 -17 18 -10 -5 -544 -537 -1188 -1180 -643
-644 -1173 -1171 -1177 -1171 -4 0 -16 17 -27 38 l-20 38 1150 1150 c633 632
1155 1157 1160 1167 8 14 5 17 -18 17 -23 0 -205 -177 -1173 -1145 l-1146
-1146 -23 42 -24 41 1097 1097 c603 603 1096 1100 1096 1104 0 4 -12 7 -27 7
-23 0 -202 -174 -1109 -1081 l-1081 -1081 -22 35 c-11 19 -21 38 -21 43 0 5
459 468 1021 1029 561 561 1025 1028 1030 1038 8 14 5 17 -18 17 -23 0 -186
-158 -1045 -1017 -559 -559 -1019 -1015 -1021 -1013 -2 3 -13 21 -25 40 l-21
36 960 959 c528 528 965 968 970 978 8 14 5 17 -18 17 -23 0 -177 -149 -983
-955 l-955 -955 -23 42 -23 42 906 906 c498 498 905 909 905 913 0 4 -12 7
-27 7 -23 0 -173 -146 -919 -891 l-892 -892 -22 43 -22 43 841 841 c463 463
841 845 841 849 0 4 -12 7 -27 7 -23 0 -163 -136 -854 -827 l-827 -826 -21 34
c-12 19 -21 39 -21 44 0 6 345 354 766 775 421 421 770 773 775 783 8 14 5 17
-18 17 -23 0 -149 -121 -790 -762 -614 -613 -766 -760 -774 -748 -5 8 -16 27
-24 41 -14 25 -10 29 691 730 388 387 710 712 715 722 8 14 5 17 -18 17 -23 0
-140 -112 -728 -700 l-700 -700 -24 42 -23 41 651 651 c358 358 651 655 651
659 0 4 -12 7 -27 7 -23 0 -134 -107 -664 -636 l-636 -636 -22 37 c-11 20 -21
39 -21 43 0 4 259 266 576 582 316 316 580 583 585 593 8 14 5 17 -18 17 -23
0 -121 -94 -600 -572 -315 -315 -574 -570 -576 -567 -2 2 -13 20 -24 40 l-21
36 515 514 c283 283 519 522 524 532 8 14 5 17 -18 17 -23 0 -111 -84 -533
-505 -278 -278 -509 -505 -513 -505 -3 0 -15 17 -26 38 l-20 38 450 450 c248
247 455 457 460 467 8 14 5 17 -18 17 -22 0 -102 -75 -473 -445 l-446 -446
-23 42 -23 41 396 397 c218 218 396 400 396 404 0 4 -12 7 -27 7 -22 0 -95
-68 -409 -381 l-381 -381 -22 35 c-11 19 -21 38 -21 43 0 5 144 153 321 329
176 176 325 328 330 338 8 14 5 17 -17 17 -23 0 -85 -57 -348 -320z m-446
-1444 l-172 -171 49 80 c28 44 74 118 103 165 28 47 73 106 98 132 l46 47 23
-41 24 -42 -171 -170z m221 82 l21 -41 -372 -371 c-205 -204 -369 -364 -364
-356 4 8 50 83 102 165 91 147 99 156 340 398 136 136 248 247 249 247 2 0 12
-19 24 -42z m2188 -1010 l-101 -163 -286 -287 c-158 -159 -289 -288 -292 -288
-3 0 -14 17 -26 38 l-21 37 411 413 c226 226 412 412 413 412 1 0 -43 -73 -98
-162z m-331 -530 c-77 -124 -121 -184 -186 -250 -47 -48 -88 -85 -91 -83 -3 2
-15 20 -25 40 l-20 36 210 210 c115 115 210 209 211 209 1 0 -43 -73 -99 -162z"/>
<path d="M3996 1150 c-614 -613 -1122 -1123 -1127 -1132 -8 -15 -5 -18 18 -18
23 0 196 168 1111 1082 596 596 1092 1095 1103 1111 11 15 19 37 17 50 -4 18
-193 -166 -1122 -1093z"/>
<path d="M4096 1050 c-559 -558 -1022 -1023 -1027 -1033 -8 -14 -5 -17 18 -17
23 0 181 153 1011 983 541 540 992 994 1003 1010 11 15 19 37 17 50 -4 18
-175 -149 -1022 -993z"/>
<path d="M4196 950 c-504 -503 -922 -923 -927 -932 -8 -15 -5 -18 18 -18 23 0
167 139 911 882 486 486 892 895 903 911 11 15 19 37 17 50 -4 18 -158 -132
-922 -893z"/>
<path d="M4296 850 c-449 -448 -822 -823 -827 -832 -8 -15 -5 -18 18 -18 23 0
152 124 811 783 431 430 792 794 803 810 11 15 19 37 17 50 -4 18 -141 -114
-822 -793z"/>
<path d="M4396 750 c-394 -393 -722 -723 -727 -732 -8 -15 -5 -18 18 -18 23 0
137 110 711 683 376 375 692 694 703 710 11 15 19 37 17 50 -4 18 -124 -97
-722 -693z"/>
<path d="M4496 650 c-339 -338 -622 -623 -627 -632 -8 -15 -5 -18 18 -18 23 0
123 95 611 583 321 320 592 594 603 610 11 15 19 37 17 50 -4 18 -106 -80
-622 -593z"/>
<path d="M4596 550 c-284 -283 -522 -523 -527 -533 -8 -14 -5 -17 18 -17 23 0
108 81 511 483 266 265 492 494 503 510 11 15 19 37 17 50 -4 18 -89 -62 -522
-493z"/>
<path d="M4696 450 c-229 -228 -422 -423 -427 -432 -8 -15 -5 -18 18 -18 22 0
93 66 411 383 211 210 392 394 403 410 11 15 19 37 17 50 -4 18 -72 -45 -422
-393z"/>
<path d="M4796 350 c-174 -173 -322 -323 -327 -332 -8 -15 -5 -18 17 -18 23 0
80 52 312 282 156 156 293 295 303 311 11 15 19 37 17 50 -4 18 -54 -28 -322
-293z"/>
<path d="M4896 250 c-119 -118 -222 -223 -227 -232 -8 -15 -5 -18 17 -18 21 0
65 37 211 183 205 202 226 227 221 260 -3 19 -37 -11 -222 -193z"/>
<path d="M4996 150 c-136 -133 -149 -150 -111 -150 18 0 49 23 111 82 102 98
127 130 122 161 -3 19 -19 7 -122 -93z"/>
</g>
</svg>
